<svg width="30" height="30" viewBox="0 0 30 30" fill="none" xmlns="http://www.w3.org/2000/svg">
<path d="M8.33333 25H10.8333V21.6667H14.1667V19.1667H10.8333V15.8333H8.33333V19.1667H5V21.6667H8.33333V25ZM16.6667 23.75H25V21.25H16.6667V23.75ZM16.6667 19.5833H25V17.0833H16.6667V19.5833ZM5.41667 10.3333H13.75V7.83333H5.41667V10.3333ZM0 30V0H30V30H0ZM3.33333 26.6667H26.6667V3.33333H3.33333V26.6667ZM18.5 13.25L20.8333 10.9167L23.1667 13.25L24.9167 11.5L22.5833 9.08333L24.9167 6.75L23.1667 5L20.8333 7.33333L18.5 5L16.75 6.75L19.0833 9.08333L16.75 11.5L18.5 13.25Z" fill="white"/>
</svg>
