<svg width="11" height="9" viewBox="0 0 11 9" fill="none" xmlns="http://www.w3.org/2000/svg">
<path d="M3.62418 7.12516L1.43668 4.93766C1.37948 4.87976 1.31135 4.83379 1.23625 4.80241C1.16115 4.77104 1.08057 4.75488 0.999181 4.75488C0.91779 4.75488 0.837209 4.77104 0.762109 4.80241C0.687008 4.83379 0.618883 4.87976 0.561681 4.93766C0.503781 4.99486 0.457811 5.06298 0.426437 5.13808C0.395062 5.21319 0.378906 5.29377 0.378906 5.37516C0.378906 5.45655 0.395062 5.53713 0.426437 5.61223C0.457811 5.68733 0.503781 5.75546 0.561681 5.81266L3.18043 8.43141C3.42418 8.67516 3.81793 8.67516 4.06168 8.43141L10.6867 1.81266C10.7446 1.75546 10.7906 1.68733 10.8219 1.61223C10.8533 1.53713 10.8695 1.45655 10.8695 1.37516C10.8695 1.29377 10.8533 1.21319 10.8219 1.13809C10.7906 1.06298 10.7446 0.994859 10.6867 0.937657C10.6295 0.879758 10.5614 0.833788 10.4863 0.802413C10.4112 0.771038 10.3306 0.754883 10.2492 0.754883C10.1678 0.754883 10.0872 0.771038 10.0121 0.802413C9.93701 0.833788 9.86888 0.879758 9.81168 0.937657L3.62418 7.12516Z" fill="#FFFFFF"/>
</svg>
