<svg width="40" height="40" viewBox="0 0 40 40" fill="none" xmlns="http://www.w3.org/2000/svg">
<path d="M9.09331 20L4.98664 24.2517C4.08664 25.1833 3.63664 25.65 3.47998 26.045C3.12498 26.9433 3.42998 27.9417 4.20164 28.415C4.54164 28.6217 5.15331 28.6867 6.37664 28.8167C7.06831 28.89 7.41331 28.925 7.70164 29.0367C8.02419 29.1614 8.31574 29.3547 8.55606 29.6034C8.79637 29.8521 8.9797 30.15 9.09331 30.4767C9.19998 30.7767 9.23498 31.1333 9.30664 31.85C9.42998 33.1167 9.49331 33.75 9.69331 34.1C10.15 34.9 11.115 35.2133 11.9816 34.8467C12.365 34.6867 12.815 34.2217 13.715 33.2883L20 26.78L26.285 33.2883C27.185 34.2217 27.635 34.6867 28.0183 34.8467C28.885 35.2133 29.85 34.9 30.3066 34.1C30.5066 33.75 30.5683 33.1167 30.6933 31.85C30.765 31.1333 30.8 30.7767 30.9066 30.4767C31.1466 29.8067 31.65 29.285 32.2983 29.0367C32.5866 28.925 32.9316 28.89 33.6233 28.8167C34.8466 28.6867 35.4583 28.6217 35.7983 28.415C36.57 27.9417 36.875 26.9433 36.52 26.045C36.3633 25.65 35.9133 25.1833 35.0133 24.2517L30.9066 20M18.5766 11.705C19.21 10.5667 19.5266 10 20 10C20.4733 10 20.79 10.5667 21.4233 11.705L21.5866 11.9983C21.7666 12.3217 21.8566 12.4817 21.9966 12.5883C22.1383 12.695 22.3133 12.735 22.6633 12.8133L22.98 12.8867C24.21 13.165 24.825 13.3033 24.9716 13.7733C25.1183 14.2433 24.6983 14.735 23.86 15.715L23.6433 15.9683C23.405 16.2467 23.285 16.385 23.2316 16.5583C23.1783 16.7317 23.1966 16.9167 23.2316 17.2883L23.265 17.6267C23.3916 18.935 23.455 19.59 23.0733 19.88C22.69 20.17 22.1133 19.905 20.9616 19.375L20.665 19.2383C20.3366 19.0883 20.1733 19.0133 20 19.0133C19.8266 19.0133 19.6633 19.0883 19.335 19.2383L19.0383 19.375C17.8866 19.9067 17.31 20.17 16.9266 19.88C16.5433 19.59 16.6083 18.935 16.735 17.6267L16.7683 17.2883C16.8033 16.9167 16.8216 16.7317 16.7683 16.5583C16.715 16.385 16.595 16.2467 16.3566 15.9683L16.14 15.715C15.3016 14.735 14.8816 14.245 15.0283 13.7733C15.175 13.3033 15.79 13.165 17.02 12.8867L17.3366 12.8133C17.6866 12.735 17.8616 12.6967 18.0033 12.5883C18.1433 12.4817 18.2333 12.3217 18.4133 11.9983L18.5766 11.705Z" stroke="#F5F8FA" stroke-width="2"/>
<path d="M9.16673 10.6617C8.16801 13.1565 8.06112 15.9195 8.86411 18.4839C9.6671 21.0484 11.3307 23.257 13.5739 24.7366C15.8171 26.2162 18.5023 26.8761 21.1758 26.6048C23.8493 26.3334 26.3472 25.1475 28.2473 23.2473C30.1475 21.3471 31.3334 18.8493 31.6048 16.1758C31.8761 13.5023 31.2162 10.8171 29.7366 8.57394C28.257 6.33074 26.0484 4.6671 23.4839 3.86411C20.9195 3.06112 18.1565 3.16801 15.6617 4.16673" stroke="#F5F8FA" stroke-width="2" stroke-linecap="round"/>
</svg>
