<svg width="40" height="40" viewBox="0 0 40 40" fill="none" xmlns="http://www.w3.org/2000/svg">
<path d="M9.65833 23.8431L6.705 20.8848L3.75 23.8431M30.3417 16.2114L33.295 19.1714L36.25 16.2114" stroke="#F5F8FA" stroke-width="1.5" stroke-linecap="round" stroke-linejoin="round"/>
<path d="M33.295 19.1717C33.295 15.6383 31.895 12.2533 29.4016 9.75498C28.1679 8.51875 26.7024 7.53796 25.0892 6.86875C23.4759 6.19954 21.7465 5.85505 20 5.85498C18.3034 5.85364 16.6226 6.18018 15.05 6.81665C13.2944 7.52054 11.7091 8.59078 10.4 9.95595C9.0909 11.3211 8.08801 12.9498 7.45829 14.7333M6.70496 20.8833C6.70752 23.9743 7.78388 26.9683 9.74996 29.3533C11.7139 31.7355 14.4463 33.3592 17.4776 33.9453C20.5088 34.5315 23.6495 34.0434 26.36 32.565C29.0702 31.0836 31.1822 28.7072 32.335 25.8417" stroke="#F5F8FA" stroke-width="2" stroke-linecap="round" stroke-linejoin="round"/>
<path d="M15.9667 23.2965C16.0534 24.2859 16.5241 25.2021 17.278 25.8487C18.0318 26.4954 19.0089 26.8213 20 26.7565C23.2533 26.7565 24.0333 24.8848 24.0333 23.2965C24.0333 21.7082 22.6883 20.0248 20 20.0248C17.3117 20.0248 15.9667 18.9615 15.9667 16.7948C16.004 16.044 16.2691 15.3224 16.7267 14.726C17.1844 14.1297 17.8128 13.6868 18.5283 13.4565C19.0033 13.3032 19.5033 13.2482 20 13.2948C20.9924 13.2517 21.9635 13.5905 22.7138 14.2415C23.464 14.8925 23.9362 15.8063 24.0333 16.7948M20 28.7731V27.0215M20 11.2715V13.2882" stroke="#F5F8FA" stroke-width="2" stroke-linecap="round" stroke-linejoin="round"/>
</svg>
