<svg width="19" height="19" viewBox="0 0 19 19" fill="none" xmlns="http://www.w3.org/2000/svg">
<path d="M13.0726 10.1905L12.7134 10.5482C12.7134 10.5482 11.8582 11.3978 9.52495 9.07793C7.19168 6.75808 8.04681 5.90847 8.04681 5.90847L8.27264 5.68264C8.83089 5.12834 8.88379 4.23767 8.39661 3.58704L7.40171 2.25814C6.79845 1.45275 5.63379 1.34615 4.94289 2.03311L3.70322 3.26488C3.36132 3.60599 3.13233 4.04659 3.15997 4.53614C3.23103 5.78924 3.79797 8.48415 6.95953 11.6283C10.313 14.962 13.4595 15.0947 14.7458 14.9747C15.1532 14.9368 15.507 14.7299 15.792 14.4456L16.9132 13.3307C17.6713 12.5782 17.4581 11.2872 16.4884 10.7606L14.9803 9.94018C14.3439 9.59512 13.5701 9.69619 13.0726 10.1905Z" fill="white"/>
</svg>
