<svg width="19" height="19" viewBox="0 0 19 19" fill="none" xmlns="http://www.w3.org/2000/svg">
<path d="M13.4615 10.9182C13.2356 10.8041 12.1101 10.2622 11.9008 10.1888C11.6915 10.1114 11.5381 10.0747 11.3868 10.3029C11.2334 10.5291 10.7981 11.0323 10.6613 11.1851C10.5287 11.3358 10.394 11.3542 10.168 11.2421C8.82494 10.582 7.94405 10.0645 7.05902 8.57115C6.82481 8.17387 7.29323 8.20239 7.73057 7.34466C7.80518 7.1939 7.76787 7.06555 7.70984 6.95145C7.6518 6.83736 7.19581 5.73311 7.00513 5.28286C6.82066 4.84483 6.62997 4.90595 6.4911 4.8978C6.35845 4.88965 6.20715 4.88965 6.05377 4.88965C5.90039 4.88965 5.65374 4.94669 5.4444 5.16877C5.23506 5.39491 4.64435 5.93889 4.64435 7.04313C4.64435 8.14738 5.46306 9.21699 5.57498 9.36776C5.69105 9.51852 7.18545 11.7841 9.47991 12.76C10.9308 13.3752 11.4987 13.4282 12.2241 13.3223C12.6656 13.2571 13.5755 12.7803 13.7641 12.2527C13.9527 11.727 13.9527 11.2768 13.8968 11.183C13.8408 11.0832 13.6874 11.0262 13.4615 10.9182Z" fill="white"/>
<path d="M17.8503 5.59051C17.3818 4.49645 16.7103 3.51444 15.8543 2.67098C14.9983 1.82955 13.9992 1.16741 12.8841 0.709C11.7442 0.238371 10.5337 0 9.28596 0H9.24451C7.98846 0.00611207 6.7718 0.250595 5.62768 0.731411C4.52295 1.19593 3.53221 1.85603 2.68448 2.69746C1.83675 3.53889 1.17142 4.51682 0.71129 5.60681C0.234574 6.7355 -0.00585631 7.93551 0.000361729 9.17014C0.00657976 10.5841 0.350644 11.9878 0.995247 13.2428V16.3396C0.995247 16.8571 1.42222 17.2768 1.94868 17.2768H5.10122C6.37799 17.9104 7.80607 18.2486 9.24451 18.2547H9.28803C10.5296 18.2547 11.7338 18.0184 12.8675 17.5559C13.9764 17.1016 14.9734 16.4496 15.8273 15.6163C16.6833 14.7831 17.357 13.8092 17.8275 12.7233C18.3166 11.5987 18.5653 10.4027 18.5716 9.16811C18.5778 7.92736 18.3332 6.72328 17.8503 5.59051ZM14.7184 14.5141C13.2655 15.9281 11.3379 16.7063 9.28596 16.7063H9.25072C8.0009 16.7002 6.75937 16.3946 5.66292 15.8201L5.48881 15.7284H2.57048V12.8598L2.47721 12.6887C1.89272 11.6109 1.58182 10.3905 1.5756 9.162C1.56731 7.13075 2.357 5.22378 3.8058 3.78745C5.25253 2.35111 7.18634 1.55654 9.2528 1.54839H9.28803C10.3244 1.54839 11.3296 1.74601 12.2768 2.13719C13.2012 2.51817 14.0303 3.06622 14.7433 3.76707C15.4542 4.46589 16.0139 5.28287 16.4015 6.19153C16.8036 7.13279 17.0046 8.13109 17.0005 9.162C16.988 11.1912 16.1776 13.0921 14.7184 14.5141Z" fill="white"/>
</svg>
